<svg xmlns="http://www.w3.org/2000/svg" version="1.1" xmlns:xlink="http://www.w3.org/1999/xlink" xmlns:svgjs="http://svgjs.dev/svgjs" width="1440" height="560" preserveAspectRatio="none" viewBox="0 0 1440 560"><g mask="url(&quot;#SvgjsMask1014&quot;)" fill="none"><path d="M796.59 492.06a16.24 16.24 0 1 0-4.4-32.19z" stroke="rgba(50, 51, 119, 1)"></path><path d="M200.36 311.38L204.18 311.38L204.18 315.2L200.36 315.2z" stroke="rgba(87, 69, 223, 1)"></path><path d="M336.94 13.22L380.39 13.22L380.39 21.14L336.94 21.14z" fill="rgba(50, 51, 119, 1)"></path><path d="M896.07 474.87L945.47 474.87L945.47 524.27L896.07 524.27z" stroke="rgba(95, 103, 156, 1)"></path><path d="M117.92 436.08a2.14 2.14 0 1 0-2.24 3.65z" stroke="rgba(87, 69, 223, 1)"></path><path d="M389.15 532.19L419.01 532.19L419.01 580.17L389.15 580.17z" stroke="rgba(50, 51, 119, 1)"></path><path d="M315.39 120.34 a6.96 6.96 0 1 0 13.92 0 a6.96 6.96 0 1 0 -13.92 0z" fill="rgba(87, 69, 223, 1)"></path><path d="M1111.83 399.73L1128.54 399.73L1128.54 412.23L1111.83 412.23z" fill="rgba(87, 69, 223, 1)"></path><path d="M461.99 349.93 a45.75 45.75 0 1 0 91.5 0 a45.75 45.75 0 1 0 -91.5 0z" stroke="rgba(50, 51, 119, 1)"></path><path d="M495.08 295.16L525.09 295.16L525.09 325.17L495.08 325.17z" fill="rgba(87, 69, 223, 1)"></path><path d="M1251.67 72.93 a33.15 33.15 0 1 0 66.3 0 a33.15 33.15 0 1 0 -66.3 0z" stroke="rgba(50, 51, 119, 1)"></path><path d="M610.67 421.89L628.12 421.89L628.12 439.34L610.67 439.34z" fill="rgba(87, 69, 223, 1)"></path><path d="M638.55 81.71a33.28 33.28 0 1 0-15.51 64.73z" stroke="rgba(50, 51, 119, 1)"></path><path d="M400.39 446.09 a9.32 9.32 0 1 0 18.64 0 a9.32 9.32 0 1 0 -18.64 0z" fill="rgba(95, 103, 156, 1)"></path><path d="M349.65 202.99L382.43 202.99L382.43 204.99L349.65 204.99z" stroke="rgba(95, 103, 156, 1)"></path><path d="M136.68 162.65a6.12 6.12 0 1 0 11.16 5.02z" fill="rgba(87, 69, 223, 1)"></path><path d="M100.42 216.64L118.36 216.64L118.36 234.58L100.42 234.58z" stroke="rgba(95, 103, 156, 1)"></path><path d="M1110.59 364.87L1128.53 364.87L1128.53 370.72L1110.59 370.72z" fill="rgba(87, 69, 223, 1)"></path><path d="M1434.8 349.11L1467.01 349.11L1467.01 351.65L1434.8 351.65z" fill="rgba(50, 51, 119, 1)"></path><path d="M663.78 542.69L710.06 542.69L710.06 588.97L663.78 588.97z" fill="rgba(50, 51, 119, 1)"></path><path d="M29.32 209.58 a48.97 48.97 0 1 0 97.94 0 a48.97 48.97 0 1 0 -97.94 0z" fill="rgba(87, 69, 223, 1)"></path><path d="M670.12 455.07 a6.65 6.65 0 1 0 13.3 0 a6.65 6.65 0 1 0 -13.3 0z" stroke="rgba(50, 51, 119, 1)"></path><path d="M1016.65 306.02a55.4 55.4 0 1 0 14.87-109.8z" fill="rgba(50, 51, 119, 1)"></path><path d="M497.76 510.52 a15 15 0 1 0 30 0 a15 15 0 1 0 -30 0z" stroke="rgba(87, 69, 223, 1)"></path><path d="M137.56 227.3L154.38 227.3L154.38 248.68L137.56 248.68z" fill="rgba(87, 69, 223, 1)"></path><path d="M18.72 413.43L38.16 413.43L38.16 415.17L18.72 415.17z" fill="rgba(50, 51, 119, 1)"></path><path d="M1065.71 404.54L1109.37 404.54L1109.37 426.36L1065.71 426.36z" stroke="rgba(95, 103, 156, 1)"></path><path d="M978.68 435.36L1026.49 435.36L1026.49 483.17L978.68 483.17z" stroke="rgba(50, 51, 119, 1)"></path><path d="M9.82 218.24 a28.52 28.52 0 1 0 57.04 0 a28.52 28.52 0 1 0 -57.04 0z" stroke="rgba(87, 69, 223, 1)"></path><path d="M1050.22 270.41 a36.61 36.61 0 1 0 73.22 0 a36.61 36.61 0 1 0 -73.22 0z" fill="rgba(95, 103, 156, 1)"></path><path d="M932.98 455.17a27.95 27.95 0 1 0 53.17 17.26z" stroke="rgba(87, 69, 223, 1)"></path><path d="M273.18 290.53 a38.67 38.67 0 1 0 77.34 0 a38.67 38.67 0 1 0 -77.34 0z" fill="rgba(95, 103, 156, 1)"></path><path d="M196.86 425.15 a33.37 33.37 0 1 0 66.74 0 a33.37 33.37 0 1 0 -66.74 0z" stroke="rgba(87, 69, 223, 1)"></path></g><defs><mask id="SvgjsMask1014"><rect width="1440" height="560" fill="#ffffff"></rect></mask></defs></svg>