<svg id="visual" viewBox="0 0 900 600" width="900" height="600" xmlns="http://www.w3.org/2000/svg" xmlns:xlink="http://www.w3.org/1999/xlink" version="1.1"><rect x="0" y="0" width="900" height="600" fill="#414584"></rect><defs><linearGradient id="grad1_0" x1="33.3%" y1="0%" x2="100%" y2="100%"><stop offset="20%" stop-color="#414584" stop-opacity="1"></stop><stop offset="80%" stop-color="#414584" stop-opacity="1"></stop></linearGradient></defs><defs><linearGradient id="grad2_0" x1="0%" y1="0%" x2="66.7%" y2="100%"><stop offset="20%" stop-color="#414584" stop-opacity="1"></stop><stop offset="80%" stop-color="#414584" stop-opacity="1"></stop></linearGradient></defs><g transform="translate(900, 0)"><path d="M0 486.7C-63.5 480.2 -127 473.6 -186.3 449.7C-245.5 425.8 -300.6 384.5 -333.8 333.8C-366.9 283 -378.2 222.9 -400 165.7C-421.9 108.5 -454.3 54.3 -486.7 0L0 0Z" fill="#001122"></path></g><g transform="translate(0, 600)"><path d="M0 -486.7C68.2 -485.4 136.4 -484 186.3 -449.7C236.1 -415.4 267.7 -348.1 294.9 -294.9C322 -241.7 344.8 -202.5 376 -155.8C407.3 -109 447 -54.5 486.7 0L0 0Z" fill="#001122"></path></g></svg>